<svg xmlns="http://www.w3.org/2000/svg" xmlns:xlink="http://www.w3.org/1999/xlink" width="190" zoomAndPan="magnify" viewBox="0 0 142.5 45.749998" height="61" preserveAspectRatio="xMidYMid meet" version="1.0"><defs><g/><clipPath id="cae8527453"><path d="M 20 9.605469 L 30.613281 9.605469 L 30.613281 24 L 20 24 Z M 20 9.605469 " clip-rule="nonzero"/></clipPath><clipPath id="76c800a899"><path d="M 8.234375 9.605469 L 19 9.605469 L 19 24 L 8.234375 24 Z M 8.234375 9.605469 " clip-rule="nonzero"/></clipPath><clipPath id="807e0f67f3"><path d="M 20 22 L 30.613281 22 L 30.613281 35.714844 L 20 35.714844 Z M 20 22 " clip-rule="nonzero"/></clipPath><clipPath id="cf1a78dc9e"><path d="M 8.234375 22 L 19 22 L 19 35.714844 L 8.234375 35.714844 Z M 8.234375 22 " clip-rule="nonzero"/></clipPath></defs><g clip-path="url(#cae8527453)"><path fill="#fd9600" d="M 21.160156 9.609375 C 21.230469 9.609375 21.300781 9.617188 21.371094 9.640625 L 30.417969 12.519531 C 30.707031 12.609375 30.902344 12.882812 30.902344 13.1875 L 30.855469 22.585938 C 30.855469 22.808594 30.75 23.019531 30.570312 23.148438 C 30.390625 23.28125 30.15625 23.316406 29.945312 23.25 L 20.902344 20.371094 C 20.609375 20.28125 20.414062 20.007812 20.414062 19.703125 L 20.460938 10.300781 C 20.460938 10.082031 20.570312 9.871094 20.75 9.742188 C 20.871094 9.652344 21.011719 9.609375 21.160156 9.609375 " fill-opacity="1" fill-rule="nonzero"/></g><g clip-path="url(#76c800a899)"><path fill="#414141" d="M 17.328125 19.195312 L 17.289062 11.257812 L 9.636719 13.691406 L 9.675781 21.628906 Z M 17.984375 9.609375 C 18.128906 9.609375 18.273438 9.652344 18.394531 9.742188 C 18.574219 9.871094 18.679688 10.082031 18.679688 10.300781 L 18.726562 19.703125 C 18.730469 20.007812 18.53125 20.28125 18.242188 20.371094 L 9.195312 23.25 C 8.984375 23.316406 8.753906 23.28125 8.574219 23.148438 C 8.394531 23.019531 8.285156 22.808594 8.285156 22.585938 L 8.238281 13.1875 C 8.238281 12.882812 8.433594 12.609375 8.726562 12.519531 L 17.769531 9.640625 C 17.839844 9.617188 17.910156 9.609375 17.984375 9.609375 " fill-opacity="1" fill-rule="nonzero"/></g><g clip-path="url(#807e0f67f3)"><path fill="#414141" d="M 21.160156 22.5 C 21.230469 22.5 21.300781 22.511719 21.371094 22.53125 L 30.417969 25.410156 C 30.707031 25.503906 30.90625 25.777344 30.902344 26.082031 L 30.855469 30.628906 C 30.855469 30.890625 30.707031 31.128906 30.472656 31.246094 L 21.425781 35.789062 C 21.210938 35.898438 20.953125 35.886719 20.746094 35.761719 C 20.539062 35.632812 20.414062 35.40625 20.414062 35.164062 L 20.460938 23.195312 C 20.460938 22.972656 20.570312 22.765625 20.75 22.632812 C 20.867188 22.546875 21.011719 22.5 21.160156 22.5 " fill-opacity="1" fill-rule="nonzero"/></g><g clip-path="url(#cf1a78dc9e)"><path fill="#fd9600" d="M 17.324219 34.03125 L 17.289062 24.152344 L 9.640625 26.585938 L 9.679688 30.1875 Z M 17.984375 22.5 C 18.128906 22.5 18.273438 22.546875 18.394531 22.632812 C 18.574219 22.765625 18.679688 22.972656 18.679688 23.195312 L 18.726562 35.164062 C 18.726562 35.40625 18.601562 35.632812 18.398438 35.761719 C 18.191406 35.886719 17.933594 35.898438 17.714844 35.789062 L 8.671875 31.246094 C 8.4375 31.128906 8.289062 30.890625 8.285156 30.628906 L 8.238281 26.082031 C 8.234375 25.777344 8.433594 25.503906 8.726562 25.410156 L 17.769531 22.53125 C 17.839844 22.511719 17.910156 22.5 17.984375 22.5 " fill-opacity="1" fill-rule="nonzero"/></g><g fill="#414141" fill-opacity="1"><g transform="translate(33.417982, 28.282699)"><g><path d="M 4.5 -3.65625 L 3.25 -2.359375 L 3.25 0 L 1.109375 0 L 1.109375 -9.3125 L 3.25 -9.3125 L 3.25 -4.96875 L 7.375 -9.3125 L 9.765625 -9.3125 L 5.90625 -5.171875 L 10 0 L 7.484375 0 Z M 4.5 -3.65625 "/></g></g></g><g fill="#414141" fill-opacity="1"><g transform="translate(43.764133, 28.282699)"><g><path d="M 15.1875 -9.3125 L 12.140625 0 L 9.828125 0 L 7.78125 -6.3125 L 5.65625 0 L 3.359375 0 L 0.296875 -9.3125 L 2.53125 -9.3125 L 4.625 -2.765625 L 6.828125 -9.3125 L 8.828125 -9.3125 L 10.953125 -2.71875 L 13.125 -9.3125 Z M 15.1875 -9.3125 "/></g></g></g><g fill="#414141" fill-opacity="1"><g transform="translate(59.742741, 28.282699)"><g><path d="M 1.109375 -9.3125 L 3.265625 -9.3125 L 3.265625 0 L 1.109375 0 Z M 1.109375 -9.3125 "/></g></g></g><g fill="#414141" fill-opacity="1"><g transform="translate(64.602907, 28.282699)"><g><path d="M 4.5 -3.65625 L 3.25 -2.359375 L 3.25 0 L 1.109375 0 L 1.109375 -9.3125 L 3.25 -9.3125 L 3.25 -4.96875 L 7.375 -9.3125 L 9.765625 -9.3125 L 5.90625 -5.171875 L 10 0 L 7.484375 0 Z M 4.5 -3.65625 "/></g></g></g><g fill="#ff9a00" fill-opacity="1"><g transform="translate(74.959301, 28.282699)"><g><path d="M 4.171875 0.15625 C 3.429688 0.15625 2.71875 0.0546875 2.03125 -0.140625 C 1.34375 -0.335938 0.789062 -0.597656 0.375 -0.921875 L 1.109375 -2.546875 C 1.503906 -2.253906 1.976562 -2.019531 2.53125 -1.84375 C 3.082031 -1.664062 3.632812 -1.578125 4.1875 -1.578125 C 4.789062 -1.578125 5.238281 -1.664062 5.53125 -1.84375 C 5.832031 -2.019531 5.984375 -2.257812 5.984375 -2.5625 C 5.984375 -2.789062 5.894531 -2.976562 5.71875 -3.125 C 5.539062 -3.269531 5.316406 -3.382812 5.046875 -3.46875 C 4.773438 -3.5625 4.410156 -3.660156 3.953125 -3.765625 C 3.242188 -3.929688 2.660156 -4.097656 2.203125 -4.265625 C 1.753906 -4.441406 1.367188 -4.710938 1.046875 -5.078125 C 0.722656 -5.453125 0.5625 -5.953125 0.5625 -6.578125 C 0.5625 -7.117188 0.707031 -7.609375 1 -8.046875 C 1.289062 -8.484375 1.726562 -8.832031 2.3125 -9.09375 C 2.90625 -9.351562 3.628906 -9.484375 4.484375 -9.484375 C 5.078125 -9.484375 5.65625 -9.410156 6.21875 -9.265625 C 6.789062 -9.117188 7.289062 -8.914062 7.71875 -8.65625 L 7.0625 -7.015625 C 6.195312 -7.503906 5.332031 -7.75 4.46875 -7.75 C 3.863281 -7.75 3.414062 -7.648438 3.125 -7.453125 C 2.84375 -7.253906 2.703125 -7 2.703125 -6.6875 C 2.703125 -6.363281 2.867188 -6.125 3.203125 -5.96875 C 3.535156 -5.8125 4.039062 -5.660156 4.71875 -5.515625 C 5.4375 -5.347656 6.019531 -5.175781 6.46875 -5 C 6.925781 -4.832031 7.316406 -4.566406 7.640625 -4.203125 C 7.960938 -3.835938 8.125 -3.347656 8.125 -2.734375 C 8.125 -2.203125 7.972656 -1.710938 7.671875 -1.265625 C 7.378906 -0.828125 6.929688 -0.476562 6.328125 -0.21875 C 5.734375 0.03125 5.015625 0.15625 4.171875 0.15625 Z M 4.171875 0.15625 "/></g></g></g><g fill="#ff9a00" fill-opacity="1"><g transform="translate(83.947263, 28.282699)"><g><path d="M 3.03125 -7.5625 L 0.046875 -7.5625 L 0.046875 -9.3125 L 8.171875 -9.3125 L 8.171875 -7.5625 L 5.1875 -7.5625 L 5.1875 0 L 3.03125 0 Z M 3.03125 -7.5625 "/></g></g></g><g fill="#ff9a00" fill-opacity="1"><g transform="translate(92.668911, 28.282699)"><g><path d="M 7.234375 -2 L 2.921875 -2 L 2.09375 0 L -0.125 0 L 4.03125 -9.3125 L 6.15625 -9.3125 L 10.328125 0 L 8.0625 0 Z M 6.5625 -3.640625 L 5.078125 -7.203125 L 3.609375 -3.640625 Z M 6.5625 -3.640625 "/></g></g></g><g fill="#ff9a00" fill-opacity="1"><g transform="translate(103.361258, 28.282699)"><g><path d="M 5.5625 0.15625 C 4.613281 0.15625 3.753906 -0.046875 2.984375 -0.453125 C 2.222656 -0.867188 1.617188 -1.441406 1.171875 -2.171875 C 0.734375 -2.910156 0.515625 -3.738281 0.515625 -4.65625 C 0.515625 -5.582031 0.734375 -6.410156 1.171875 -7.140625 C 1.617188 -7.867188 2.222656 -8.441406 2.984375 -8.859375 C 3.753906 -9.273438 4.617188 -9.484375 5.578125 -9.484375 C 6.390625 -9.484375 7.117188 -9.335938 7.765625 -9.046875 C 8.421875 -8.765625 8.96875 -8.359375 9.40625 -7.828125 L 8.03125 -6.546875 C 7.394531 -7.273438 6.613281 -7.640625 5.6875 -7.640625 C 5.101562 -7.640625 4.585938 -7.507812 4.140625 -7.25 C 3.691406 -7 3.335938 -6.648438 3.078125 -6.203125 C 2.828125 -5.753906 2.703125 -5.238281 2.703125 -4.65625 C 2.703125 -4.082031 2.828125 -3.566406 3.078125 -3.109375 C 3.335938 -2.660156 3.691406 -2.304688 4.140625 -2.046875 C 4.585938 -1.796875 5.101562 -1.671875 5.6875 -1.671875 C 6.613281 -1.671875 7.394531 -2.039062 8.03125 -2.78125 L 9.40625 -1.5 C 8.96875 -0.957031 8.421875 -0.546875 7.765625 -0.265625 C 7.109375 0.015625 6.375 0.15625 5.5625 0.15625 Z M 5.5625 0.15625 "/></g></g></g><g fill="#ff9a00" fill-opacity="1"><g transform="translate(113.614201, 28.282699)"><g><path d="M 4.5 -3.65625 L 3.25 -2.359375 L 3.25 0 L 1.109375 0 L 1.109375 -9.3125 L 3.25 -9.3125 L 3.25 -4.96875 L 7.375 -9.3125 L 9.765625 -9.3125 L 5.90625 -5.171875 L 10 0 L 7.484375 0 Z M 4.5 -3.65625 "/></g></g></g></svg>